<?xml version="1.0" encoding="utf-8"?>
<!-- Generator: Adobe Illustrator 22.1.0, SVG Export Plug-In . SVG Version: 6.00 Build 0)  -->
<svg version="1.1" id="Layer_1" xmlns="http://www.w3.org/2000/svg" xmlns:xlink="http://www.w3.org/1999/xlink" x="0px" y="0px"
	 viewBox="0 0 210.9 34.4" style="enable-background:new 0 0 210.9 34.4;" xml:space="preserve">
<g>
	<g>
		<g>
			<path d="M75.2,30.8H148v-1H76C75.7,30.1,75.5,30.4,75.2,30.8z"/>
			<path d="M31.4,29.7c-0.1,0.3-0.2,0.7-0.4,1h38.7c0.3-0.3,0.6-0.7,0.9-1H31.4z"/>
			<path d="M3.8,29.7v1h22.5c0.1-0.3,0.2-0.7,0.3-1H3.8z"/>
		</g>
		<g>
			<g>
				<path d="M20.9,4.3c-1.1,3.2-2.2,4.1-4,4.1c-0.8,0-1.5-0.1-2-0.2v16.5c2.1-0.1,4.4-0.9,5.6-1.8l0.3,0.5c-1.6,2.3-4,4.2-8.4,4.2
					c-5.9,0-10.2-4.1-10.2-10.2c0-4.6,3.1-8,7-10.1C8.4,7.2,7.6,7.2,6.7,7.2c-2.1,0-4.3,1-6.1,6L0,12.9c1.1-7,3.6-8.8,7.5-8.8
					c3.9,0,6.5,1.4,11,1.4c0.5,0,1-0.2,2-1.5L20.9,4.3z M9.7,7.4L9.7,7.4C7.9,9.1,5.9,12,5.9,15.8c0,2.7,0.6,4.8,1.8,6.2l1.1-0.7
					c0.7-0.5,1-1.2,1-3V7.4z M14.3,8.1C14,8.1,13.5,8,13.1,7.9V19c0,0-3.2,2.2-5,3.4c1.5,1.5,3.6,2.3,6.2,2.3V8.1z"/>
			</g>
			<g>
				<path d="M31.6,11.3c-0.4,0.2-0.4,0.7-0.4,1.4v13.6c0,2.7-0.9,4.9-5,6.7l-0.5-0.2c1.6-1.3,2.3-2.6,2.3-5.5V12.3
					c-0.5-0.3-0.9-0.6-1.7-1l-1,0.8v12.2c0.2,0.2,0.7,0.6,1.1,0.8v0.1c-0.6,0.5-1.8,1.5-2.3,2.1c-0.7-0.6-1.9-1.5-2.5-1.9v-0.1
					c0.3-0.2,0.5-0.6,0.5-1.5V5.2c0-0.7-0.1-1.2-0.3-1.6L22,3.5c0.4,0.1,1.1,0.6,1.3,1.3h0.1c0.5-1,1.1-1.9,2.4-2.4l0.1,0.1
					c-0.3,0.4-0.5,1-0.5,2.1v6.8c0.8-0.6,2.1-1.8,2.8-2.4C29.1,9.6,30.5,10.4,31.6,11.3L31.6,11.3z"/>
			</g>
			<g>
				<path d="M37.2,18v4.7c1.9,1.2,2.7,1.5,3.2,1.5c0.2,0,0.4-0.1,0.6-0.3l0.3-0.3l0.5,0.5c-0.7,0.7-2.2,2.2-3,3
					c-1.3-0.8-3.8-2.2-5.4-3v-0.1c0.4-0.3,0.5-0.6,0.5-1.5V11.4c1.6-0.4,3.7-1.3,5.6-2.5c0.7,1.5,2.3,4.6,3.2,6
					C41.6,15.7,38.9,17.1,37.2,18z M37.3,11l-0.2,0v6.2c1-0.5,2.2-1.1,2.8-1.5C39.2,14.5,37.9,12.1,37.3,11z"/>
			</g>
			<g>
				<path d="M67.4,19.1c0,4.1-3,6-7.8,8.6c-3.2-1-5.9-1.9-9.5-1.9c-0.9,0-1.8,0.4-2.8,1.4l-0.5-0.5l3-2.7c1.8-1.6,2-3,2-4.2v-2.3
					h-0.4c-1.5,0-2.5,0.4-3,1.4l-0.3-0.1c0.2-3.4,1.8-4.6,3.6-4.6h0.1v-1c0-1.7,0.9-2.8,3.2-4.3L55,8.9c-1.1,0.3-2.1,0.5-3.1,0.5
					c-1.9,0-3.5-1.4-4.7-4.9l0.3-0.4c0.4,0.6,1.3,2.2,3.9,2.2c2.4,0,5.9-1.1,8.4-1.1c4.1,0,7.6,1.8,7.6,7.8V19.1z M56.7,8.6l-0.2,0
					c-0.6,0.1-1.1,0.6-1.1,1.4v7.8c0,2.2-1.2,3.6-3.6,5.4l0,0.1c0.4-0.2,1.2-0.5,1.6-0.5c0.6,0,1.9,0.2,3.2,0.5V8.6z M63.9,13.3
					c-0.1-3.4-1.3-4.9-5.3-4.9c-0.3,0-0.9,0.1-1.4,0.1v7.9L63.9,13.3z M63.9,16.2v-2.4l-6.6,3v2.4L63.9,16.2z M63.9,16.7l-6.6,3v3.7
					c1.9,0.4,4.2,1.1,5.6,1.5c0.6-0.5,1-1.7,1-4.2V16.7z"/>
			</g>
			<g>
				<path d="M69,32.7l-0.2-0.4c4.7-2.5,6.4-6.6,6.4-10.6c0-2.8-1.4-3.7-3.5-3.7c-0.5,0-0.9,0.1-1.1,0.2l-0.4-0.4
					c1.9-1.9,3.4-3.3,4.7-5c-1.7-0.1-3.6-0.9-4.2-0.9c-0.7,0-1,0.3-1.3,0.6L69,12.3c0.7-1.1,1.5-2.5,2-3.5c1.5,0.4,4.9,1.4,6.1,1.4
					c0.6,0,0.8-0.1,1.1-0.2l0.4,0.3c-2.3,2.4-3.2,3.4-4.8,5.1c2.9,0.2,4.9,2.1,4.9,5.1C78.7,25.9,75.8,30.7,69,32.7z"/>
			</g>
			<g>
				<path d="M105.2,4.3c-1.1,3.2-2.2,4.1-4,4.1c-0.8,0-1.5-0.1-2-0.2v16.5c2.1-0.1,4.4-0.9,5.6-1.8l0.3,0.5c-1.6,2.3-4,4.2-8.4,4.2
					c-5.9,0-10.2-4.1-10.2-10.2c0-4.6,3.1-8,7-10.1C92.8,7.2,92,7.2,91,7.2c-2.1,0-4.3,1-6.1,6l-0.6-0.2c1.1-7,3.6-8.8,7.5-8.8
					c3.9,0,6.5,1.4,11,1.4c0.5,0,1-0.2,2-1.5L105.2,4.3z M94.1,7.4L94.1,7.4c-1.9,1.7-3.9,4.6-3.9,8.4c0,2.7,0.6,4.8,1.8,6.2
					l1.1-0.7c0.7-0.5,1-1.2,1-3V7.4z M98.7,8.1c-0.3-0.1-0.8-0.2-1.3-0.3V19c0,0-3.2,2.2-5,3.4c1.5,1.5,3.6,2.3,6.2,2.3V8.1z"/>
			</g>
			<g>
				<path d="M111.6,24.9l-2.4,2.3c-0.7-0.5-2.1-1.5-2.9-2.1V25c0.4-0.2,0.5-0.6,0.5-1.5V12l-0.4-0.2c-0.6-0.4-0.9-0.4-1.2-0.4l0-0.1
					l2.4-2.3c0.7,0.5,2,1.5,2.9,2.1v0.1c-0.4,0.2-0.5,0.5-0.5,1.4v11.6C111,24.8,111.3,24.8,111.6,24.9L111.6,24.9z M107.7,7.4
					l-1-1.1c0.9-0.9,2.9-3.1,3.5-3.9c0.2,0.3,0.9,1.6,1.1,2.4C110.6,5.4,108.7,6.8,107.7,7.4z"/>
			</g>
			<g>
				<path d="M130.1,24.9l-2.4,2.3c-0.9-0.7-2.2-1.5-3-2.1V25c0.4-0.2,0.5-0.5,0.5-1.5V12.4c-0.6-0.4-1.2-0.8-1.6-1.1
					c0,0-0.8,0.7-1,0.9v12.2c0.4,0.3,0.6,0.5,1.1,0.8v0c-0.7,0.6-2.3,2.1-2.3,2.1c-0.6-0.5-2.5-1.9-2.5-1.9v-0.2
					c0.3-0.2,0.5-0.6,0.5-1.5V12.4c-0.6-0.4-1.2-0.8-1.6-1.1c0,0-0.8,0.7-1,0.8v12.2c0.4,0.3,0.6,0.5,1.1,0.8v0
					c-0.5,0.4-1.5,1.4-2.3,2.1c-0.6-0.5-1.8-1.4-2.5-1.9v-0.1c0.3-0.2,0.5-0.5,0.5-1.5V12c-0.7-0.6-1.1-0.7-1.5-0.7l-0.1-0.1
					c0.9-0.8,1.6-1.5,2.4-2.3c1,0.8,1.9,1.5,2.8,2.1h0l2.4-2.1c1,0.7,2.2,1.5,3.3,2.2l2.6-2.2c1.1,0.7,2.4,1.6,3.5,2.4v0.1
					c-0.2,0.2-0.5,0.5-0.5,1.1v11.6C128.9,24.5,129.6,24.9,130.1,24.9L130.1,24.9z"/>
			</g>
			<g>
				<path d="M134.8,18v4.7c1.9,1.2,2.7,1.5,3.2,1.5c0.2,0,0.4-0.1,0.6-0.3l0.3-0.3l0.5,0.5c-0.7,0.7-2.2,2.2-3,3
					c-1.3-0.8-3.8-2.2-5.4-3v-0.1c0.4-0.3,0.5-0.6,0.5-1.5V11.4c1.6-0.4,3.7-1.3,5.6-2.5c0.7,1.5,2.3,4.6,3.2,6
					C139.3,15.7,136.6,17.1,134.8,18z M135,11l-0.2,0v6.2c1-0.5,2.2-1.1,2.8-1.5C136.9,14.5,135.5,12.1,135,11z"/>
			</g>
			<g>
				<path d="M150.4,17.9c-0.3,0.2-0.5,0.6-0.5,1.2v5.4c-1.6,0.6-3.4,1.6-5.1,2.7c-0.9-0.6-2-1.3-3.1-1.5c-0.1,0.2-0.1,0.5-0.1,1
					c0,0.2,0,0.5,0,0.5c-0.3-0.1-0.8-0.2-0.8-0.2c0.1-3.7,2.4-6.6,3.6-8c-0.9-0.5-2.7-1.6-3.3-1.9v-0.1c0.3-0.2,0.5-0.5,0.5-1.1
					v-4.5c1.6-0.5,3.3-1.4,4.6-2.4c1,0.8,2,1.6,3.2,2.3c0.2-0.4,0.2-0.9,0.3-1.4c0.2,0.2,0.6,0.3,0.7,0.5c-0.2,1.3-0.9,3.2-3,5.8
					l3.1,1.7V17.9z M146.7,25v-6.1l-1-0.5c-0.9,1-2.8,3.6-3.4,4.9C144,23.4,145.7,24.3,146.7,25L146.7,25z M144.9,11l-0.1,0.1V16
					c0.3,0.2,0.8,0.5,1.1,0.6c0.7-0.7,1.8-2.2,2.2-3.1C146.8,12.8,145.5,11.6,144.9,11z"/>
			</g>
		</g>
	</g>
	<g>
		<path d="M167.8,6.8c-0.6,1.9-1.4,4.3-1.9,6.2c-0.1,0.3-0.2,0.3-0.4,0.3c-0.2,0-0.5-0.1-0.7-0.2c-0.2-0.1-0.2-0.3-0.2-0.6
			c0.2-1.2,0.9-3.6,1.4-5.1c-0.3,0.1-0.6,0.2-0.7,0.2c-0.2,0.1-0.4,0.1-0.5-0.1c-0.1-0.2-0.3-0.6-0.3-0.8c0-0.2,0-0.3,0.2-0.4
			c1.1-0.4,2.8-0.8,3.9-1c0.3,0,0.4,0,0.4,0.1c0.2,0.2,0.3,0.5,0.3,0.7c0,0.2,0,0.3-0.3,0.4C168.7,6.6,168.2,6.7,167.8,6.8z"/>
		<path d="M172.2,12.2c-0.1,0.3-0.1,0.3-0.4,0.3c-0.2,0-0.5-0.1-0.7-0.2c-0.2-0.1-0.2-0.3-0.2-0.6c0.1-0.5,0.3-1.1,0.4-1.8
			c-0.4,0.1-0.8,0.2-1.2,0.4c-0.3,0.9-0.5,1.7-0.7,2.3c-0.1,0.3-0.2,0.3-0.4,0.3c-0.2,0-0.5-0.1-0.7-0.2c-0.2-0.1-0.2-0.3-0.2-0.6
			c0.1-0.4,0.3-1.1,0.5-1.9c-0.1-0.2-0.1-0.4-0.2-0.5c0-0.2,0-0.3,0.2-0.4c0.1,0,0.2-0.1,0.2-0.1c0.4-1.4,0.8-2.8,1.1-3.6
			c0.1-0.3,0.3-0.4,0.5-0.3c0.3,0.1,0.6,0.2,0.8,0.3c0.2,0.2,0.3,0.3,0.2,0.5c-0.2,0.6-0.5,1.5-0.8,2.5c0.4-0.1,0.9-0.2,1.2-0.3
			c0.3-1.2,0.7-2.4,1-3.3c0.1-0.3,0.3-0.4,0.5-0.3c0.2,0,0.5,0.2,0.8,0.3c0.2,0.1,0.2,0.3,0.2,0.5C173.6,7.2,172.8,10,172.2,12.2z"
			/>
		<path d="M174.6,5.3c0-0.2,0-0.3,0.2-0.3c0.8-0.3,2.3-0.7,3.3-0.9c0.2,0,0.4,0.1,0.5,0.3c0.1,0.2,0.1,0.4,0.1,0.6
			c0,0.3-0.1,0.4-0.3,0.4c-0.5,0.1-1.2,0.3-1.8,0.5c-0.2,0.5-0.4,1.1-0.6,1.7c0.3-0.1,0.6-0.1,0.9-0.2c0.3,0,0.4,0,0.5,0.2
			c0.1,0.2,0.1,0.4,0.2,0.6c0,0.3,0,0.3-0.3,0.4c-0.6,0.2-1.2,0.4-1.8,0.6c-0.1,0.4-0.3,0.8-0.4,1.1c0.5-0.2,0.9-0.3,1.4-0.4
			c0.3-0.1,0.4,0,0.5,0.2c0.1,0.2,0.2,0.4,0.2,0.7c0,0.2,0,0.3-0.3,0.4c-0.7,0.2-1.4,0.5-2,0.8c-0.3,0.1-0.5,0.1-0.7,0
			c-0.2-0.1-0.3-0.2-0.5-0.4c-0.1-0.2-0.2-0.4-0.1-0.7c0.2-1.1,0.9-3.2,1.4-4.8C174.7,5.8,174.6,5.5,174.6,5.3z"/>
		<path d="M184.9,10.8c-0.8-0.1-1-0.2-1-0.7c0-0.4,0.2-2.1,0.3-3.1c-0.6,1.3-1.6,3.3-1.9,4c-0.2,0.3-0.3,0.3-0.6,0.3
			c-0.2,0-0.5-0.1-0.6-0.2c-0.2-0.1-0.3-0.2-0.3-0.4c0-1.1,0.5-4.4,0.9-6.6c0-0.2,0.1-0.4,0.3-0.4c0.2,0,0.7,0.1,0.9,0.2
			c0.2,0.1,0.2,0.3,0.2,0.6c-0.1,0.6-0.6,2.9-0.8,4.2c0.7-1.6,1.8-4,2.1-4.5c0.2-0.3,0.3-0.3,0.6-0.3c0.2,0,0.4,0.1,0.5,0.2
			c0.2,0.1,0.2,0.3,0.2,0.5c0,0.3-0.3,2.4-0.5,3.8c0.7-1.9,1.9-4.7,2.3-5.3c0.2-0.3,0.3-0.3,0.6-0.3c0.2,0.1,0.5,0.2,0.6,0.4
			c0.2,0.2,0.1,0.4,0,0.7c-0.8,1.6-2.2,4.8-2.9,6.5C185.5,10.8,185.3,10.8,184.9,10.8z"/>
		<path d="M188.9,3.4c0-0.2,0-0.3,0.2-0.3c0.8-0.3,2.3-0.7,3.3-0.9c0.2,0,0.4,0.1,0.5,0.3c0.1,0.2,0.1,0.4,0.1,0.6
			c0,0.3-0.1,0.4-0.3,0.4c-0.5,0.1-1.2,0.3-1.8,0.5c-0.2,0.5-0.4,1.1-0.6,1.7c0.3-0.1,0.6-0.1,0.9-0.2c0.3,0,0.4,0,0.5,0.2
			c0.1,0.2,0.1,0.4,0.2,0.6c0,0.2,0,0.3-0.3,0.4c-0.6,0.2-1.2,0.4-1.8,0.6c-0.1,0.4-0.3,0.8-0.4,1.1c0.5-0.2,0.9-0.3,1.4-0.4
			c0.3-0.1,0.4,0,0.5,0.2c0.1,0.2,0.2,0.4,0.2,0.7c0,0.2,0,0.3-0.3,0.4c-0.7,0.2-1.4,0.5-2,0.8c-0.3,0.1-0.5,0.1-0.7,0
			c-0.2-0.1-0.3-0.2-0.5-0.4c-0.1-0.2-0.2-0.4-0.1-0.7c0.2-1.1,0.9-3.2,1.4-4.8C189.1,3.9,189,3.6,188.9,3.4z"/>
		<path d="M197.1,6.6c0,0.5-0.2,0.9-0.6,1.4c-0.6,0.6-1.7,1.3-2.4,1.6c-0.4,0.2-0.6,0.2-0.8,0c-0.3-0.2-0.4-0.3-0.7-0.6
			c-0.3-0.3-0.3-0.4-0.2-0.8c0.3-1.2,0.8-3,1.3-4.4c-0.1-0.1-0.2-0.3-0.2-0.5c-0.1-0.3-0.1-0.4,0.2-0.6c1.1-0.8,3.4-1.5,4-0.8
			c0.3,0.3,0.5,0.7,0.5,1.2c0,0.6-0.3,1.2-0.8,1.7c-0.2,0.2-0.5,0.5-0.8,0.7C196.9,5.7,197.1,6.1,197.1,6.6z M193.8,8.1
			c1.1-0.5,1.9-1.2,1.8-1.6c0-0.2-0.6-0.3-1.4,0.1C194.1,7.1,193.9,7.6,193.8,8.1z M196.8,3.2c0-0.2-0.7-0.2-1.5,0.3
			c-0.2,0.5-0.3,1-0.5,1.6C196,4.5,196.8,3.5,196.8,3.2z"/>
		<path d="M199.5,3.2c-0.2,0.1-0.4,0.1-0.5,0.1c-0.2,0-0.3-0.1-0.2-0.3c0.2-0.7,0.6-2,0.8-2.7c0.1-0.3,0.2-0.3,0.4-0.2
			c0.2,0.1,0.4,0.2,0.5,0.3c0.2,0.2,0.2,0.3,0.1,0.6c-0.1,0.6-0.4,1.4-0.6,1.9C199.8,3,199.7,3.1,199.5,3.2z"/>
		<path d="M200.4,6.7c0.7,0.5,1.3,0.6,1.6,0.3c0.3-0.3-0.9-0.9-1.5-1.5c-0.4-0.4-0.6-1.2-0.3-2.1c0.3-0.8,1-1.8,1.7-2.3
			c0.3-0.2,0.7-0.4,1.2-0.3c0.4,0.1,0.8,0.3,1,0.5c0.3,0.3,0.3,0.7,0.3,1c-0.1,0.5-0.4,1.5-0.6,2c-0.1,0.2-0.2,0.3-0.4,0.2
			c-0.6-0.2-0.9-0.5-0.8-1c0.1-0.4,0.4-1.4,0.3-1.4c-0.2-0.1-1.7,1.6-1.1,2.4c0.7,0.8,2.2,1.2,1.6,2.3c-0.4,0.8-1,1.5-2,1.6
			c-0.8,0.1-1.5-0.2-2.2-1c-0.3-0.4-0.3-0.6-0.1-0.8C199.7,6.6,200.2,6.6,200.4,6.7z"/>
		<path d="M169.6,18.5c-0.6,0-0.9-0.4-0.9-0.9c0-0.4,0.1-1-0.1-1c-0.3-0.1-1.2,1.2-1.7,2.6c-0.5,1.2-0.6,2.6-0.2,2.8
			c0.3,0.1,0.9-0.6,1.3-1.5c-0.6,0.1-0.9-0.1-0.9-0.8c0-0.2,0.1-0.3,0.3-0.3c0.4-0.2,1.1-0.4,1.4-0.5c0.3-0.1,0.5-0.1,0.7,0.1
			c0.1,0.1,0.2,0.3,0.3,0.4c0.1,0.3,0.1,0.4,0,0.8c-0.4,1.1-1,2-1.6,2.5c-0.4,0.3-0.8,0.5-1.3,0.5c-0.4,0-0.8-0.1-1.1-0.3
			c-0.2-0.1-0.5-0.4-0.6-0.8c-0.5-1.6,0.8-5,2.5-6.5c0.4-0.3,0.8-0.4,1.1-0.4c0.4,0,1,0.2,1.2,0.4c0.3,0.2,0.4,0.5,0.4,1
			c0,0.4-0.1,1.2-0.2,1.6C169.9,18.5,169.8,18.5,169.6,18.5z"/>
		<path d="M170.9,22.4c-0.1,0.3-0.2,0.3-0.4,0.3c-0.2,0-0.5-0.1-0.6-0.2c-0.2-0.1-0.2-0.3-0.2-0.6c0.2-1.1,0.8-3.2,1.4-4.9
			c-0.1-0.2-0.2-0.4-0.3-0.5c-0.1-0.3-0.1-0.4,0.2-0.6c1.1-0.8,3.3-1.6,4-0.9c0.3,0.3,0.5,0.8,0.6,1.4c0.1,0.6-0.2,1.2-0.7,1.7
			c-0.5,0.5-1.1,1.1-1.9,1.5c0.4,0.6,1,1.3,1.4,1.8c0.2,0.2,0.1,0.3,0,0.5c-0.2,0.2-0.3,0.2-0.5,0.3c-0.2,0.1-0.5,0.1-0.8-0.1
			c-0.4-0.3-1.1-1.1-1.5-1.8C171.4,20.9,171.1,21.7,170.9,22.4z M172.1,18.5c1.4-0.7,2.3-1.9,2.2-2.2c-0.1-0.3-0.7-0.2-1.5,0.2
			C172.6,17.1,172.4,17.8,172.1,18.5z"/>
		<path d="M176.2,15.1c0-0.2,0-0.3,0.2-0.3c0.8-0.3,2.3-0.7,3.3-0.9c0.2,0,0.4,0.1,0.5,0.3c0.1,0.2,0.1,0.4,0.1,0.6
			c0,0.3-0.1,0.4-0.3,0.4c-0.5,0.1-1.2,0.3-1.8,0.5c-0.2,0.5-0.4,1.1-0.6,1.7c0.3-0.1,0.6-0.1,0.9-0.2c0.3,0,0.4,0,0.5,0.2
			c0.1,0.2,0.1,0.4,0.2,0.6c0,0.3,0,0.3-0.3,0.4c-0.6,0.2-1.2,0.4-1.8,0.6c-0.1,0.4-0.3,0.8-0.4,1.1c0.5-0.2,0.9-0.3,1.4-0.4
			c0.3-0.1,0.4,0,0.5,0.2c0.1,0.2,0.2,0.4,0.2,0.7c0,0.3,0,0.3-0.3,0.4c-0.7,0.2-1.4,0.5-2,0.8c-0.3,0.1-0.5,0.1-0.7,0
			c-0.2-0.1-0.3-0.2-0.5-0.4c-0.1-0.2-0.2-0.4-0.1-0.7c0.2-1.1,0.9-3.2,1.4-4.8C176.3,15.6,176.2,15.3,176.2,15.1z"/>
		<path d="M180.8,19.8c-0.3,0.5-0.5,1-0.7,1.4c-0.1,0.3-0.2,0.3-0.4,0.2c-0.2-0.1-0.4-0.1-0.6-0.3c-0.2-0.2-0.2-0.3,0-0.7
			c0.8-1.8,2.3-4.8,3.3-6.5c0.2-0.3,0.4-0.5,0.8-0.5c0.5-0.1,1.1,0,1.5,0.1c0.3,0.1,0.3,0.2,0.3,0.5c-0.2,1.5-0.5,4.3-0.6,6.5
			c0,0.3-0.1,0.3-0.3,0.4c-0.3,0-0.6,0-0.7,0c-0.2-0.1-0.3-0.2-0.3-0.5c0-0.4,0-0.8,0-1.3C182.2,19.3,181.4,19.5,180.8,19.8z
			 M183,17.6c0.1-0.9,0.2-1.9,0.3-2.7c-0.5,0.8-1,1.9-1.6,3.1C182.1,17.8,182.6,17.7,183,17.6z"/>
		<path d="M188.6,14.1c-0.6,1.9-1.4,4.3-1.9,6.2c-0.1,0.3-0.2,0.3-0.4,0.3s-0.5-0.1-0.7-0.2c-0.2-0.1-0.2-0.3-0.2-0.6
			c0.2-1.2,0.9-3.6,1.4-5.1c-0.3,0.1-0.6,0.2-0.7,0.2c-0.2,0.1-0.4,0.1-0.5-0.1c-0.1-0.2-0.3-0.6-0.3-0.8c0-0.2,0-0.3,0.2-0.4
			c1.1-0.4,2.8-0.8,3.9-1c0.3,0,0.4,0,0.4,0.1c0.1,0.2,0.3,0.5,0.3,0.7c0,0.2,0,0.3-0.3,0.4C189.4,13.9,189,14,188.6,14.1z"/>
		<path d="M190.3,13.2c0-0.2,0-0.3,0.2-0.3c0.8-0.3,2.3-0.7,3.3-0.9c0.2,0,0.4,0.1,0.5,0.3c0.1,0.2,0.1,0.4,0.1,0.6
			c0,0.3-0.1,0.4-0.3,0.4c-0.5,0.1-1.2,0.3-1.8,0.5c-0.2,0.5-0.4,1.1-0.6,1.7c0.3-0.1,0.6-0.1,0.9-0.2c0.3,0,0.4,0,0.5,0.2
			c0.1,0.2,0.1,0.4,0.2,0.6c0,0.2,0,0.3-0.3,0.4c-0.6,0.2-1.2,0.4-1.8,0.6c-0.1,0.4-0.3,0.8-0.4,1.1c0.5-0.2,0.9-0.3,1.4-0.4
			c0.3-0.1,0.4,0,0.5,0.2c0.1,0.2,0.2,0.4,0.2,0.7c0,0.3,0,0.3-0.3,0.4c-0.7,0.2-1.4,0.5-2,0.8c-0.3,0.1-0.5,0.1-0.7,0
			c-0.2-0.1-0.3-0.2-0.5-0.4c-0.1-0.2-0.2-0.4-0.1-0.7c0.2-1.1,0.9-3.2,1.4-4.8C190.5,13.8,190.4,13.4,190.3,13.2z"/>
		<path d="M194.4,17.6c0.7,0.5,1.3,0.6,1.6,0.3c0.3-0.3-0.9-0.9-1.5-1.5c-0.4-0.4-0.6-1.2-0.3-2.1c0.3-0.8,1-1.8,1.7-2.3
			c0.3-0.2,0.7-0.4,1.2-0.3c0.4,0.1,0.8,0.3,1,0.5c0.3,0.3,0.3,0.7,0.3,1c-0.1,0.5-0.4,1.5-0.6,2c-0.1,0.2-0.2,0.3-0.4,0.2
			c-0.6-0.2-0.9-0.5-0.8-1c0.1-0.4,0.4-1.4,0.3-1.4c-0.2-0.1-1.7,1.6-1.1,2.4c0.7,0.8,2.2,1.2,1.6,2.3c-0.4,0.8-1,1.5-2,1.6
			c-0.8,0.1-1.5-0.2-2.2-1c-0.3-0.4-0.3-0.6-0.1-0.8C193.6,17.4,194.1,17.4,194.4,17.6z"/>
		<path d="M201.9,12.3c-0.6,1.9-1.4,4.3-1.9,6.2c-0.1,0.3-0.2,0.3-0.4,0.3s-0.5-0.1-0.7-0.2c-0.2-0.1-0.2-0.3-0.2-0.6
			c0.2-1.2,0.9-3.6,1.4-5.1c-0.3,0.1-0.6,0.2-0.7,0.2c-0.2,0.1-0.4,0.1-0.5-0.1c-0.1-0.2-0.3-0.6-0.3-0.8c0-0.2,0-0.3,0.2-0.4
			c1.1-0.4,2.8-0.8,3.9-1c0.3,0,0.4,0,0.4,0.1c0.1,0.2,0.3,0.5,0.3,0.7c0,0.2,0,0.3-0.3,0.4C202.8,12.1,202.4,12.2,201.9,12.3z"/>
		<path d="M158.5,34.1c-0.1,0.3-0.2,0.3-0.4,0.3c-0.2,0-0.5-0.1-0.7-0.2c-0.2-0.1-0.2-0.3-0.2-0.6c0.2-1.1,0.8-3.2,1.4-4.9
			c-0.1-0.2-0.2-0.4-0.3-0.5c-0.1-0.3-0.1-0.4,0.2-0.6c1.1-0.8,3.3-1.6,4-0.9c0.3,0.3,0.5,0.7,0.6,1.4c0.1,0.6-0.3,1.2-0.7,1.7
			c-0.7,0.9-2.1,1.8-3.3,2.3C158.9,32.7,158.7,33.4,158.5,34.1z M161.8,28c0-0.3-0.7-0.2-1.4,0.3c-0.2,0.6-0.4,1.3-0.7,2
			C161.1,29.6,161.9,28.4,161.8,28z"/>
		<path d="M164.4,26.4c0.1-0.3,0.3-0.3,0.5-0.3c0.2,0.1,0.5,0.2,0.7,0.3c0.2,0.2,0.3,0.4,0.1,0.8c-0.6,1.7-1.8,4.9-1.2,5.1
			c0.8,0.2,2-4.3,2.5-6.3c0.1-0.3,0.2-0.4,0.5-0.3c0.3,0,0.6,0.2,0.8,0.3c0.2,0.2,0.2,0.2,0.2,0.5c-0.8,3.3-1.6,5.7-2.7,6.6
			c-0.4,0.3-0.7,0.4-1.2,0.4c-0.4,0-0.8-0.1-1.1-0.2c-0.2-0.1-0.4-0.4-0.5-0.7C162.5,31.3,163.6,28.5,164.4,26.4z"/>
		<path d="M172.6,29.9c0,0.5-0.2,0.9-0.6,1.4c-0.6,0.6-1.7,1.3-2.4,1.6c-0.4,0.2-0.6,0.2-0.8,0c-0.3-0.2-0.4-0.3-0.7-0.6
			c-0.3-0.3-0.3-0.4-0.2-0.8c0.3-1.2,0.8-3,1.3-4.4c-0.1-0.1-0.2-0.3-0.2-0.5c-0.1-0.3-0.1-0.4,0.2-0.6c1.1-0.8,3.4-1.5,4-0.8
			c0.3,0.3,0.5,0.7,0.5,1.2c0,0.6-0.3,1.2-0.8,1.7c-0.2,0.2-0.5,0.5-0.8,0.7C172.4,29,172.6,29.4,172.6,29.9z M169.3,31.4
			c1.1-0.5,1.9-1.2,1.8-1.6c0-0.2-0.6-0.3-1.4,0.1C169.6,30.4,169.4,30.9,169.3,31.4z M172.3,26.5c0-0.2-0.7-0.2-1.5,0.3
			c-0.2,0.5-0.3,1-0.5,1.6C171.5,27.8,172.3,26.8,172.3,26.5z"/>
		<path d="M174.3,32.1c-0.4,0.2-0.6,0.1-0.8,0c-0.2-0.1-0.3-0.2-0.5-0.4c-0.1-0.2-0.2-0.4-0.1-0.7c0.3-1.5,1.2-4.5,1.9-6.2
			c0.1-0.3,0.3-0.3,0.5-0.3c0.3,0,0.6,0.2,0.8,0.3c0.2,0.1,0.2,0.3,0.1,0.5c-0.5,1.3-1.2,3.3-1.7,5.1c0.5-0.2,0.8-0.3,1.3-0.3
			c0.3-0.1,0.4,0,0.5,0.2c0.1,0.2,0.2,0.4,0.2,0.7c0,0.2,0,0.3-0.3,0.4C175.6,31.6,175,31.8,174.3,32.1z"/>
		<path d="M180.2,25c-0.5,1.5-1.5,4.7-2,6.5c-0.1,0.3-0.2,0.3-0.4,0.3s-0.5-0.1-0.7-0.2c-0.2-0.1-0.2-0.3-0.2-0.6
			c0.3-1.4,1.3-4.9,1.8-6.4c0.1-0.3,0.3-0.4,0.5-0.3c0.3,0,0.6,0.2,0.8,0.3C180.3,24.6,180.3,24.7,180.2,25z"/>
		<path d="M183.7,29.6c-0.2,0.5-0.6,0.9-0.9,1.2c-0.3,0.3-0.9,0.6-1.3,0.6c-0.5,0-0.9-0.1-1.1-0.2c-0.2-0.1-0.5-0.4-0.6-0.7
			c-0.5-1.5,0.7-4.9,2.3-6.5c0.4-0.4,0.8-0.5,1.2-0.6c0.5,0,1.1,0.2,1.4,0.4c0.3,0.3,0.4,0.6,0.4,1c0,0.5-0.1,1.1-0.3,1.5
			c-0.1,0.2-0.1,0.3-0.4,0.3c-0.6-0.1-0.8-0.3-0.8-0.9c0-0.4,0.2-0.9-0.1-1c-0.3-0.1-1.3,1.6-1.7,2.7c-0.4,1.2-0.6,2.6-0.2,2.7
			c0.2,0.1,0.5-0.2,1-0.8c0.3-0.4,0.8-0.6,1.2-0.5C183.9,28.9,183.9,29.1,183.7,29.6z"/>
		<path d="M185.7,29.1c-0.3,0.5-0.5,1-0.7,1.4c-0.1,0.3-0.2,0.3-0.4,0.2c-0.2-0.1-0.4-0.1-0.6-0.3c-0.2-0.2-0.2-0.3,0-0.7
			c0.8-1.8,2.3-4.8,3.3-6.5c0.2-0.3,0.4-0.5,0.8-0.5c0.5-0.1,1.1,0,1.5,0.1c0.3,0.1,0.3,0.2,0.3,0.5c-0.2,1.5-0.5,4.3-0.6,6.5
			c0,0.3-0.1,0.3-0.3,0.4s-0.6,0-0.7,0c-0.2-0.1-0.3-0.2-0.3-0.5c0-0.4,0-0.8,0-1.3C187.1,28.6,186.3,28.9,185.7,29.1z M188,27
			c0.1-0.9,0.2-1.9,0.3-2.7c-0.5,0.8-1,1.9-1.6,3.1C187.1,27.2,187.5,27.1,188,27z"/>
		<path d="M193.5,23.5c-0.6,1.9-1.4,4.3-1.9,6.2c-0.1,0.3-0.2,0.3-0.4,0.3c-0.2,0-0.5-0.1-0.7-0.2c-0.2-0.1-0.2-0.3-0.2-0.6
			c0.2-1.2,0.9-3.6,1.4-5.1c-0.3,0.1-0.6,0.2-0.7,0.2c-0.2,0.1-0.4,0.1-0.5-0.1c-0.1-0.2-0.3-0.6-0.3-0.8c0-0.2,0-0.3,0.2-0.4
			c1.1-0.4,2.8-0.8,3.9-1c0.3,0,0.4,0,0.4,0.1c0.2,0.2,0.3,0.5,0.3,0.7c0,0.2,0,0.3-0.3,0.4C194.4,23.3,193.9,23.4,193.5,23.5z"/>
		<path d="M197.1,22.7c-0.5,1.5-1.5,4.7-2,6.5c-0.1,0.3-0.2,0.3-0.4,0.3s-0.5-0.1-0.7-0.2c-0.2-0.1-0.2-0.3-0.2-0.6
			c0.3-1.4,1.3-4.9,1.8-6.4c0.1-0.3,0.3-0.4,0.5-0.3c0.3,0,0.6,0.2,0.8,0.3C197.2,22.3,197.2,22.4,197.1,22.7z"/>
		<path d="M201.8,22.7c0.1,1.6-0.6,4.2-1.9,5.6c-0.4,0.5-0.9,0.7-1.5,0.7c-0.4,0-0.8-0.1-1.1-0.2c-0.2-0.1-0.5-0.4-0.6-0.8
			c-0.5-1.6,0.5-4.7,2.1-6.2c0.3-0.3,0.9-0.5,1.2-0.5c0.5,0,1,0.1,1.2,0.4C201.7,21.9,201.8,22.2,201.8,22.7z M198.6,25
			c-0.4,1.1-0.6,2.6-0.2,2.7c0.4,0.1,1.1-1,1.5-2.4c0.4-1.1,0.6-2.7,0.2-2.8C199.8,22.5,199,23.9,198.6,25z"/>
		<path d="M206.6,20.7c0.1-0.3,0.3-0.4,0.5-0.3c0.2,0,0.4,0.1,0.5,0.2c0.3,0.1,0.3,0.3,0.2,0.6c-0.5,1.7-1.4,4.6-1.9,6.4
			c-0.1,0.3-0.3,0.4-0.5,0.3c-0.2,0-0.5-0.1-0.6-0.2c-0.2-0.1-0.3-0.2-0.4-0.5c-0.2-0.8-0.3-2-0.4-3.5c-0.3,1-0.8,2.6-1.2,4.3
			c-0.1,0.3-0.2,0.3-0.4,0.3c-0.2,0-0.4-0.1-0.5-0.2c-0.3-0.1-0.3-0.2-0.2-0.7c0.3-1.2,1.2-4.6,1.8-6.3c0.1-0.2,0.2-0.3,0.4-0.4
			c0.2,0,0.6,0.1,1,0.2c0.3,0.1,0.3,0.2,0.3,0.5c0.1,1.1,0.2,2.4,0.3,3.6C205.6,23.9,206.2,21.9,206.6,20.7z"/>
		<path d="M207.2,26.8c0.2-0.5,0.6-0.8,1.1-0.7c0.5,0.1,0.6,0.5,0.4,1c-0.2,0.6-0.7,0.9-1.1,0.8C207.2,27.9,207,27.4,207.2,26.8z
			 M210.9,20.4c-0.6,1.6-1.3,3.6-1.8,5c-0.1,0.3-0.2,0.3-0.4,0.3c-0.2,0-0.5-0.1-0.7-0.2c-0.2-0.1-0.3-0.3-0.2-0.6
			c0.4-1.4,1.1-3.8,1.6-5.1c0.1-0.3,0.2-0.4,0.5-0.3c0.2,0,0.6,0.2,0.8,0.3C210.9,20,211,20.2,210.9,20.4z"/>
	</g>
</g>
</svg>
